<?xml version="1.0" encoding="utf-8"?>
<!-- Generator: Adobe Illustrator 27.8.1, SVG Export Plug-In . SVG Version: 6.00 Build 0)  -->
<svg data-bbox="13 205 966 998" viewBox="0 0 992 1280" height="20" width="11" xmlns="http://www.w3.org/2000/svg" data-type="shape">
    <g>
        <path d="M397 1120q0 13 10 23l50 50q10 10 23 10t23-10l466-466q10-10 10-23t-10-23L503 215q-10-10-23-10t-23 10l-50 50q-10 10-10 23t10 23l393 393-393 393q-10 10-10 23zm-384 0q0 13 10 23l50 50q10 10 23 10t23-10l466-466q10-10 10-23t-10-23L119 215q-10-10-23-10t-23 10l-50 50q-10 10-10 23t10 23l393 393-393 393q-10 10-10 23z"></path>
    </g>
</svg>