<?xml version="1.0" encoding="utf-8"?>
<!-- Generator: Adobe Illustrator 27.8.1, SVG Export Plug-In . SVG Version: 6.00 Build 0)  -->
<svg preserveAspectRatio="xMidYMid meet" data-bbox="0 0 1536 1536" viewBox="0 0 1536 1536" height="20" width="27" xmlns="http://www.w3.org/2000/svg" data-type="color" role="presentation" aria-hidden="true">
    <g>
        <path d="M256 832V704q0-26 19-45t45-19h502L633 451q-19-19-19-45t19-45l91-91q18-18 45-18t45 18l362 362 91 91q18 18 18 45t-18 45l-91 91-362 362q-18 18-45 18t-45-18l-91-91q-18-18-18-45t18-45l189-189H320q-26 0-45-19t-19-45zM0 768q0 209 103 385.5T382.5 1433 768 1536t385.5-103 279.5-279.5T1536 768t-103-385.5T1153.5 103 768 0 382.5 103 103 382.5 0 768z" fill="#93AC2C" data-color="1"></path>
    </g>
</svg>